<svg xmlns="http://www.w3.org/2000/svg" version="1.1" xmlns:xlink="http://www.w3.org/1999/xlink" xmlns:svgjs="http://svgjs.com/svgjs" width="1080" height="720" preserveAspectRatio="none" viewBox="0 0 1080 720"><g mask="url(&quot;#SvgjsMask1032&quot;)" fill="none"><rect width="1080" height="720" x="0" y="0" fill="url(#SvgjsLinearGradient1033)"></rect><path d="M1080 0L771.94 0L1080 6.33z" fill="rgba(255, 255, 255, .1)"></path><path d="M771.94 0L1080 6.33L1080 389.84L364.06000000000006 0z" fill="rgba(255, 255, 255, .075)"></path><path d="M364.05999999999995 0L1080 389.84L1080 572.5999999999999L272.8399999999999 0z" fill="rgba(255, 255, 255, .05)"></path><path d="M272.8399999999999 0L1080 572.5999999999999L1080 645.2699999999999L149.9799999999999 0z" fill="rgba(255, 255, 255, .025)"></path><path d="M0 720L19.83 720L0 678.99z" fill="rgba(0, 0, 0, .1)"></path><path d="M0 678.99L19.83 720L132.49 720L0 352.37z" fill="rgba(0, 0, 0, .075)"></path><path d="M0 352.37L132.49 720L331.88 720L0 233.46z" fill="rgba(0, 0, 0, .05)"></path><path d="M0 233.46000000000004L331.88 720L797.05 720L0 156.46000000000004z" fill="rgba(0, 0, 0, .025)"></path></g><defs><mask id="SvgjsMask1032"><rect width="1080" height="720" fill="#ffffff"></rect></mask><linearGradient x1="0%" y1="50%" x2="100%" y2="50%" gradientUnits="userSpaceOnUse" id="SvgjsLinearGradient1033"><stop stop-color="rgba(153, 31, 167, 1)" offset="0"></stop><stop stop-color="rgba(121, 23, 154, 1)" offset="1"></stop></linearGradient></defs></svg>